<svg id="SvgjsSvg1020" xmlns="http://www.w3.org/2000/svg" version="1.1" xmlns:xlink="http://www.w3.org/1999/xlink" xmlns:svgjs="http://svgjs.com/svgjs" width="32" height="32" viewBox="0 0 32 32"><title>facebook</title><desc>Created with Avocode.</desc><defs id="SvgjsDefs1021"></defs><path id="SvgjsPath1022" d="M1283 5461C1291.84 5461 1299 5468.16 1299 5477C1299 5485.84 1291.84 5493 1283 5493C1274.16 5493 1267 5485.84 1267 5477C1267 5468.16 1274.16 5461 1283 5461ZM1285.13 5467C1281.25 5467 1282 5471 1282 5471V5474H1280V5478H1282V5487H1286V5478H1288L1289 5474H1286C1286 5474 1286 5472.82 1286 5472C1286 5471.18 1287 5471 1287 5471H1289V5467C1289 5467 1289 5467 1285.13 5467Z " fill="#4463b1" fill-opacity="1" transform="matrix(1,0,0,1,-1267,-5461)"></path><path id="SvgjsPath1023" d="M1283 5461C1291.84 5461 1299 5468.16 1299 5477C1299 5485.84 1291.84 5493 1283 5493C1274.16 5493 1267 5485.84 1267 5477C1267 5468.16 1274.16 5461 1283 5461ZM1285.13 5467C1281.25 5467 1282 5471 1282 5471V5474H1280V5478H1282V5487H1286V5478H1288L1289 5474H1286C1286 5474 1286 5472.82 1286 5472C1286 5471.18 1287 5471 1287 5471H1289V5467C1289 5467 1289 5467 1285.13 5467Z " fill="#ebebeb" fill-opacity="1" transform="matrix(1,0,0,1,-1267,-5461)"></path></svg>