<svg id="SvgjsSvg1012" xmlns="http://www.w3.org/2000/svg" version="1.1" xmlns:xlink="http://www.w3.org/1999/xlink" xmlns:svgjs="http://svgjs.com/svgjs" width="32" height="32" viewBox="0 0 32 32"><title>linked-in</title><desc>Created with Avocode.</desc><defs id="SvgjsDefs1013"></defs><path id="SvgjsPath1014" d="M1168 5461C1176.84 5461 1184 5468.16 1184 5477C1184 5485.84 1176.84 5493 1168 5493C1159.16 5493 1152 5485.84 1152 5477C1152 5468.16 1159.16 5461 1168 5461ZM1159.48 5468.46C1159.17 5468.77 1159.01 5469.14 1159.01 5469.57C1159.01 5470.0199999999995 1159.17 5470.4 1159.49 5470.719999999999C1159.81 5471.03 1160.2 5471.19 1160.65 5471.19C1161.1000000000001 5471.19 1161.48 5471.04 1161.7900000000002 5470.73C1162.1100000000001 5470.419999999999 1162.2700000000002 5470.04 1162.2700000000002 5469.599999999999C1162.2700000000002 5469.16 1162.1100000000001 5468.78 1161.7900000000002 5468.469999999999C1161.4700000000003 5468.159999999999 1161.0800000000002 5467.999999999999 1160.63 5467.999999999999C1160.19 5467.999999999999 1159.8000000000002 5468.149999999999 1159.48 5468.459999999999ZM1159 5484H1162.27V5471.99H1159ZM1164.73 5484H1167.99V5479.64C1167.99 5478.360000000001 1168.04 5477.52 1168.15 5477.14C1168.3600000000001 5476.400000000001 1168.73 5475.820000000001 1169.27 5475.400000000001C1169.81 5474.9800000000005 1170.46 5474.77 1171.21 5474.77C1171.79 5474.77 1172.27 5474.900000000001 1172.67 5475.150000000001C1173.0600000000002 5475.400000000001 1173.3400000000001 5475.77 1173.5 5476.26C1173.66 5476.74 1173.74 5477.72 1173.74 5479.1900000000005V5484.000000000001H1177V5476.4400000000005C1177 5475.02 1176.51 5473.9400000000005 1175.65 5473.22C1174.6200000000001 5472.360000000001 1173.6100000000001 5471.9400000000005 1172.14 5471.9400000000005C1171.43 5471.9400000000005 1170.96 5472.05 1170.2800000000002 5472.280000000001C1169.5900000000001 5472.52 1168.8500000000001 5473.000000000001 1168.0000000000002 5473.590000000001V5471.990000000001H1164.7300000000002Z " fill="#005a87" fill-opacity="1" transform="matrix(1,0,0,1,-1152,-5461)"></path><path id="SvgjsPath1015" d="M1168 5461C1176.84 5461 1184 5468.16 1184 5477C1184 5485.84 1176.84 5493 1168 5493C1159.16 5493 1152 5485.84 1152 5477C1152 5468.16 1159.16 5461 1168 5461ZM1159.48 5468.46C1159.17 5468.77 1159.01 5469.14 1159.01 5469.57C1159.01 5470.0199999999995 1159.17 5470.4 1159.49 5470.719999999999C1159.81 5471.03 1160.2 5471.19 1160.65 5471.19C1161.1000000000001 5471.19 1161.48 5471.04 1161.7900000000002 5470.73C1162.1100000000001 5470.419999999999 1162.2700000000002 5470.04 1162.2700000000002 5469.599999999999C1162.2700000000002 5469.16 1162.1100000000001 5468.78 1161.7900000000002 5468.469999999999C1161.4700000000003 5468.159999999999 1161.0800000000002 5467.999999999999 1160.63 5467.999999999999C1160.19 5467.999999999999 1159.8000000000002 5468.149999999999 1159.48 5468.459999999999ZM1159 5484H1162.27V5471.99H1159ZM1164.73 5484H1167.99V5479.64C1167.99 5478.360000000001 1168.04 5477.52 1168.15 5477.14C1168.3600000000001 5476.400000000001 1168.73 5475.820000000001 1169.27 5475.400000000001C1169.81 5474.9800000000005 1170.46 5474.77 1171.21 5474.77C1171.79 5474.77 1172.27 5474.900000000001 1172.67 5475.150000000001C1173.0600000000002 5475.400000000001 1173.3400000000001 5475.77 1173.5 5476.26C1173.66 5476.74 1173.74 5477.72 1173.74 5479.1900000000005V5484.000000000001H1177V5476.4400000000005C1177 5475.02 1176.51 5473.9400000000005 1175.65 5473.22C1174.6200000000001 5472.360000000001 1173.6100000000001 5471.9400000000005 1172.14 5471.9400000000005C1171.43 5471.9400000000005 1170.96 5472.05 1170.2800000000002 5472.280000000001C1169.5900000000001 5472.52 1168.8500000000001 5473.000000000001 1168.0000000000002 5473.590000000001V5471.990000000001H1164.7300000000002Z " fill="#ebebeb" fill-opacity="1" transform="matrix(1,0,0,1,-1152,-5461)"></path></svg>