<svg id="SvgjsSvg1000" xmlns="http://www.w3.org/2000/svg" version="1.1" xmlns:xlink="http://www.w3.org/1999/xlink" xmlns:svgjs="http://svgjs.com/svgjs" width="108" height="145" viewBox="0 0 108 145"><title>Logo</title><desc>Created with Avocode.</desc><defs id="SvgjsDefs1001"></defs><path id="SvgjsPath1007" d="M549.428 177.9622C548.412 189.0788 546.348 198.8512 542.59 207.396C541.344 210.22799999999998 539.0780000000001 212.92999999999998 538.032 216C537.88 216 537.7280000000001 216 537.576 216C537.576 215.244 537.576 214.49 537.576 213.736C538.432 212.40599999999998 538.014 210.58599999999998 538.488 208.754C540.744 200.04 540.9140000000001 188.414 537.12 181.132C530.64 168.6898 517.664 172.875 504.758 167.547C499.702 165.4602 495.988 161.166 493.36199999999997 156.6786C492.45 154.11319999999998 491.53799999999995 151.54639999999998 490.626 148.981C489.19399999999996 143.569 490.50199999999995 136.58259999999999 491.99399999999997 132.6788C498.20799999999997 116.41659999999999 513.7379999999999 109.2602 532.562 118.1886C532.562 117.73559999999999 532.562 117.2828 532.562 116.82979999999999C530.948 114.63759999999999 531.472 111.36479999999999 530.738 108.22619999999999C528.768 99.788 527.25 72.09299999999999 536.6640000000001 71.9994C539.2180000000001 73.8522 544.1260000000001 73.76979999999999 544.4140000000001 77.8868C543.6620000000001 78.69699999999999 543.618 79.0238 543.5020000000001 80.6036C543.6540000000001 80.6036 543.806 80.6036 543.9580000000001 80.6036C543.9580000000001 80.4522 543.9580000000001 80.3014 543.9580000000001 80.1508C545.9200000000001 78.09 546.4580000000001 73.4092 549.8840000000001 72.90520000000001C552.6200000000001 75.34580000000001 557.2500000000001 75.8314 558.0880000000001 80.1508C555.8040000000001 83.04220000000001 553.5500000000001 88.09880000000001 552.618 91.9242C552.922 91.9242 553.226 91.9242 553.5300000000001 91.9242C556.3860000000001 88.1698 568.1540000000001 77.4226 573.5860000000001 78.339C575.1940000000001 80.9224 576.8540000000002 83.4752 577.6880000000001 86.9432C574.8180000000001 87.96260000000001 573.498 90.73400000000001 571.3060000000002 92.37700000000001C563.3080000000001 98.37660000000001 556.8440000000002 107.12500000000001 551.7060000000001 115.924C552.1620000000001 115.924 552.6180000000002 115.924 553.0740000000002 115.924C556.2120000000002 113.48320000000001 569.0200000000002 112.30120000000001 574.4980000000002 113.66000000000001C588.9420000000001 117.24360000000001 593.0020000000002 122.2018 596.3760000000002 136.7546C596.8460000000002 138.7768 597.4640000000002 143.5378 596.8320000000002 146.264C592.4660000000002 165.1474 583.2520000000002 174.68220000000002 564.0140000000002 178.8674C558.8720000000002 179.9858 553.7460000000002 178.19400000000002 549.4280000000002 177.9622Z " fill="#f6f6f6" fill-opacity="1" transform="matrix(1,0,0,1,-490,-71)"></path></svg>