<svg id="SvgjsSvg1000" xmlns="http://www.w3.org/2000/svg" version="1.1" xmlns:xlink="http://www.w3.org/1999/xlink" xmlns:svgjs="http://svgjs.com/svgjs" width="36" height="23" viewBox="0 0 36 23"><title>interface - arrow top </title><desc>Created with Avocode.</desc><defs id="SvgjsDefs1001"></defs><path id="SvgjsPath1007" d="M1446.49 5308.88C1446.01 5309.13 1445.39 5308.9800000000005 1445.11 5308.53L1428.1899999999998 5289.4C1427.9099999999999 5288.95 1428.07 5288.379999999999 1428.5599999999997 5288.12C1429.0399999999997 5287.87 1429.6599999999996 5288.0199999999995 1429.9399999999998 5288.47L1446.86 5307.6C1447.1399999999999 5308.05 1446.9799999999998 5308.620000000001 1446.49 5308.88ZM1411.51 5308.88C1411.99 5309.13 1412.61 5308.9800000000005 1412.89 5308.53L1429.8100000000002 5289.4C1430.0900000000001 5288.95 1429.93 5288.379999999999 1429.4400000000003 5288.12C1428.9600000000003 5287.87 1428.3400000000004 5288.0199999999995 1428.0600000000002 5288.47L1411.14 5307.6C1410.8600000000001 5308.05 1411.0200000000002 5308.620000000001 1411.51 5308.88Z " fill="#e6e6e6" fill-opacity="1" transform="matrix(1,0,0,1,-1411,-5287)"></path></svg>