<svg id="SvgjsSvg1008" xmlns="http://www.w3.org/2000/svg" version="1.1" xmlns:xlink="http://www.w3.org/1999/xlink" xmlns:svgjs="http://svgjs.com/svgjs" width="32" height="32" viewBox="0 0 32 32"><title>behance</title><desc>Created with Avocode.</desc><defs id="SvgjsDefs1009"></defs><path id="SvgjsPath1010" d="M1111 5461C1119.84 5461 1127 5468.16 1127 5477C1127 5485.84 1119.84 5493 1111 5493C1102.16 5493 1095 5485.84 1095 5477C1095 5468.16 1102.16 5461 1111 5461ZM1101 5482.77H1106.96C1109.19 5482.77 1111.31 5481.75 1111.31 5479.38C1111.31 5477.92 1110.55 5476.82 1109.05 5476.41C1110.12 5475.92 1110.72 5475.12 1110.72 5473.97C1110.72 5471.79 1109.14 5471 1106.79 5471H1101ZM1103.47 5472.97H1106.24C1107.21 5472.97 1108.1 5473.2 1108.1 5474.320000000001C1108.1 5475.3 1107.3999999999999 5475.710000000001 1106.4499999999998 5475.710000000001H1103.4699999999998ZM1103.47 5477.66H1106.65C1107.8100000000002 5477.66 1108.52 5478.13 1108.52 5479.33C1108.52 5480.54 1107.67 5480.87 1106.6 5480.87H1103.4699999999998ZM1120.83 5478.83C1121 5476.23 1119.53 5474.07 1116.5 5474.07C1113.8 5474.07 1111.93 5476 1111.93 5478.54C1111.93 5481.17 1113.69 5483 1116.5 5483C1118.52 5483 1120.09 5481.95 1120.78 5479.95H1118.62C1118.4699999999998 5480.48 1117.57 5481.25 1116.59 5481.25C1115.23 5481.25 1114.47 5480.31 1114.3999999999999 5478.83ZM1114.4 5477.31C1114.43 5476.650000000001 1114.88 5475.820000000001 1116.43 5475.820000000001C1117.6200000000001 5475.820000000001 1118.16 5476.130000000001 1118.38 5477.31ZM1119 5473V5472H1114V5473Z " fill="#0188f5" fill-opacity="1" transform="matrix(1,0,0,1,-1095,-5461)"></path><path id="SvgjsPath1011" d="M1111 5461C1119.84 5461 1127 5468.16 1127 5477C1127 5485.84 1119.84 5493 1111 5493C1102.16 5493 1095 5485.84 1095 5477C1095 5468.16 1102.16 5461 1111 5461ZM1101 5482.77H1106.96C1109.19 5482.77 1111.31 5481.75 1111.31 5479.38C1111.31 5477.92 1110.55 5476.82 1109.05 5476.41C1110.12 5475.92 1110.72 5475.12 1110.72 5473.97C1110.72 5471.79 1109.14 5471 1106.79 5471H1101ZM1103.47 5472.97H1106.24C1107.21 5472.97 1108.1 5473.2 1108.1 5474.320000000001C1108.1 5475.3 1107.3999999999999 5475.710000000001 1106.4499999999998 5475.710000000001H1103.4699999999998ZM1103.47 5477.66H1106.65C1107.8100000000002 5477.66 1108.52 5478.13 1108.52 5479.33C1108.52 5480.54 1107.67 5480.87 1106.6 5480.87H1103.4699999999998ZM1120.83 5478.83C1121 5476.23 1119.53 5474.07 1116.5 5474.07C1113.8 5474.07 1111.93 5476 1111.93 5478.54C1111.93 5481.17 1113.69 5483 1116.5 5483C1118.52 5483 1120.09 5481.95 1120.78 5479.95H1118.62C1118.4699999999998 5480.48 1117.57 5481.25 1116.59 5481.25C1115.23 5481.25 1114.47 5480.31 1114.3999999999999 5478.83ZM1114.4 5477.31C1114.43 5476.650000000001 1114.88 5475.820000000001 1116.43 5475.820000000001C1117.6200000000001 5475.820000000001 1118.16 5476.130000000001 1118.38 5477.31ZM1119 5473V5472H1114V5473Z " fill="#ebebeb" fill-opacity="1" transform="matrix(1,0,0,1,-1095,-5461)"></path></svg>