<svg id="SvgjsSvg1016" xmlns="http://www.w3.org/2000/svg" version="1.1" xmlns:xlink="http://www.w3.org/1999/xlink" xmlns:svgjs="http://svgjs.com/svgjs" width="32" height="33" viewBox="0 0 32 33"><title>google+</title><desc>Created with Avocode.</desc><defs id="SvgjsDefs1017"></defs><path id="SvgjsPath1018" d="M1226 5461C1234.84 5461 1242 5468.17 1242 5477C1242 5485.84 1234.84 5493.01 1226 5493.01C1225.44498 5493.01 1224.89657 5492.98174 1224.35615 5492.9265700000005C1226.9186 5491.66769 1228.25 5489.475310000001 1228.25 5487.3C1228.25 5484.85 1226.88 5483.650000000001 1225.37 5482.34L1224.1399999999999 5481.34C1223.77 5481.03 1223.2499999999998 5480.6 1223.2499999999998 5479.82C1223.2499999999998 5479.04 1223.7699999999998 5478.54 1224.2099999999998 5478.08C1225.6499999999999 5476.91 1227.0799999999997 5475.67 1227.0799999999997 5473.05C1227.0799999999997 5470.360000000001 1225.4399999999996 5468.9400000000005 1224.6499999999996 5468.27H1226.7799999999997L1228.9599999999998 5466.990000000001H1221.9199999999998C1220.07 5466.990000000001 1217.7499999999998 5467.27 1215.7899999999997 5468.9400000000005C1214.3199999999997 5470.250000000001 1213.6099999999997 5472.06 1213.6099999999997 5473.6900000000005C1213.6099999999997 5476.450000000001 1215.6599999999996 5479.250000000001 1219.2799999999997 5479.250000000001C1219.6299999999997 5479.250000000001 1219.9999999999998 5479.220000000001 1220.3799999999997 5479.180000000001C1220.2099999999996 5479.6100000000015 1220.0399999999997 5479.960000000001 1220.0399999999997 5480.5700000000015C1220.0399999999997 5481.660000000002 1220.5799999999997 5482.340000000002 1221.0599999999997 5482.980000000001C1219.5199999999998 5483.080000000002 1216.6499999999996 5483.260000000001 1214.5299999999997 5484.6100000000015C1213.7993499999998 5485.058520000001 1213.2518599999999 5485.580300000001 1212.8506299999997 5486.124250000002C1211.0532699999997 5483.535380000002 1209.9999999999998 5480.390520000002 1209.9999999999998 5477.000000000002C1209.9999999999998 5468.170000000002 1217.1599999999999 5461.000000000002 1225.9999999999998 5461.000000000002ZM1222.23 5484C1224.83 5485.92 1225.95 5486.87 1225.95 5488.68C1225.95 5490.665910000001 1224.53217 5492.18736 1221.84363 5492.46467C1219.20208 5491.755770000001 1216.83074 5490.38738 1214.9163 5488.5468900000005C1214.9054700000002 5488.4296300000005 1214.9 5488.31062 1214.9 5488.1900000000005C1214.9 5485.67 1217.0900000000001 5484.820000000001 1217.8500000000001 5484.540000000001C1219.2800000000002 5484.040000000001 1221.13 5483.970000000001 1221.44 5483.970000000001C1221.78 5483.970000000001 1221.95 5483.970000000001 1222.23 5484.000000000001ZM1223.22 5477.27C1222.67 5477.84 1221.75 5478.26 1220.89 5478.26C1217.95 5478.26 1216.6200000000001 5474.33 1216.6200000000001 5471.95C1216.6200000000001 5471.03 1216.7900000000002 5470.07 1217.3700000000001 5469.33C1217.92 5468.62 1218.8700000000001 5468.16 1219.7600000000002 5468.16C1222.6000000000001 5468.16 1224.0700000000002 5472.13 1224.0700000000002 5474.68C1224.0700000000002 5475.320000000001 1224.0000000000002 5476.450000000001 1223.2200000000003 5477.27ZM1234 5475V5472H1237V5470H1234V5467H1232V5470H1229V5472H1232V5475Z " fill="#da4935" fill-opacity="1" transform="matrix(1,0,0,1,-1210,-5461)"></path><path id="SvgjsPath1019" d="M1226 5461C1234.84 5461 1242 5468.17 1242 5477C1242 5485.84 1234.84 5493.01 1226 5493.01C1225.44498 5493.01 1224.89657 5492.98174 1224.35615 5492.9265700000005C1226.9186 5491.66769 1228.25 5489.475310000001 1228.25 5487.3C1228.25 5484.85 1226.88 5483.650000000001 1225.37 5482.34L1224.1399999999999 5481.34C1223.77 5481.03 1223.2499999999998 5480.6 1223.2499999999998 5479.82C1223.2499999999998 5479.04 1223.7699999999998 5478.54 1224.2099999999998 5478.08C1225.6499999999999 5476.91 1227.0799999999997 5475.67 1227.0799999999997 5473.05C1227.0799999999997 5470.360000000001 1225.4399999999996 5468.9400000000005 1224.6499999999996 5468.27H1226.7799999999997L1228.9599999999998 5466.990000000001H1221.9199999999998C1220.07 5466.990000000001 1217.7499999999998 5467.27 1215.7899999999997 5468.9400000000005C1214.3199999999997 5470.250000000001 1213.6099999999997 5472.06 1213.6099999999997 5473.6900000000005C1213.6099999999997 5476.450000000001 1215.6599999999996 5479.250000000001 1219.2799999999997 5479.250000000001C1219.6299999999997 5479.250000000001 1219.9999999999998 5479.220000000001 1220.3799999999997 5479.180000000001C1220.2099999999996 5479.6100000000015 1220.0399999999997 5479.960000000001 1220.0399999999997 5480.5700000000015C1220.0399999999997 5481.660000000002 1220.5799999999997 5482.340000000002 1221.0599999999997 5482.980000000001C1219.5199999999998 5483.080000000002 1216.6499999999996 5483.260000000001 1214.5299999999997 5484.6100000000015C1213.7993499999998 5485.058520000001 1213.2518599999999 5485.580300000001 1212.8506299999997 5486.124250000002C1211.0532699999997 5483.535380000002 1209.9999999999998 5480.390520000002 1209.9999999999998 5477.000000000002C1209.9999999999998 5468.170000000002 1217.1599999999999 5461.000000000002 1225.9999999999998 5461.000000000002ZM1222.23 5484C1224.83 5485.92 1225.95 5486.87 1225.95 5488.68C1225.95 5490.665910000001 1224.53217 5492.18736 1221.84363 5492.46467C1219.20208 5491.755770000001 1216.83074 5490.38738 1214.9163 5488.5468900000005C1214.9054700000002 5488.4296300000005 1214.9 5488.31062 1214.9 5488.1900000000005C1214.9 5485.67 1217.0900000000001 5484.820000000001 1217.8500000000001 5484.540000000001C1219.2800000000002 5484.040000000001 1221.13 5483.970000000001 1221.44 5483.970000000001C1221.78 5483.970000000001 1221.95 5483.970000000001 1222.23 5484.000000000001ZM1223.22 5477.27C1222.67 5477.84 1221.75 5478.26 1220.89 5478.26C1217.95 5478.26 1216.6200000000001 5474.33 1216.6200000000001 5471.95C1216.6200000000001 5471.03 1216.7900000000002 5470.07 1217.3700000000001 5469.33C1217.92 5468.62 1218.8700000000001 5468.16 1219.7600000000002 5468.16C1222.6000000000001 5468.16 1224.0700000000002 5472.13 1224.0700000000002 5474.68C1224.0700000000002 5475.320000000001 1224.0000000000002 5476.450000000001 1223.2200000000003 5477.27ZM1234 5475V5472H1237V5470H1234V5467H1232V5470H1229V5472H1232V5475Z " fill="#ebebeb" fill-opacity="1" transform="matrix(1,0,0,1,-1210,-5461)"></path></svg>