<svg id="SvgjsSvg1000" xmlns="http://www.w3.org/2000/svg" version="1.1" xmlns:xlink="http://www.w3.org/1999/xlink" xmlns:svgjs="http://svgjs.com/svgjs" width="24" height="40" viewBox="0 0 24 40"><title>interface - arrow right</title><desc>Created with Avocode.</desc><defs id="SvgjsDefs1001"></defs><path id="SvgjsPath1007" d="M1410.12 3161.53C1409.85 3162.0400000000004 1410.01 3162.69 1410.4799999999998 3162.9900000000002L1430.5399999999997 3180.86C1431.0099999999998 3181.15 1431.6099999999997 3180.98 1431.8799999999997 3180.4700000000003C1432.1499999999996 3179.96 1431.9899999999996 3179.3 1431.5199999999998 3179.01L1411.4599999999998 3161.1400000000003C1410.9899999999998 3160.8500000000004 1410.3899999999999 3161.0200000000004 1410.12 3161.53ZM1410.12 3198.47C1409.85 3197.9599999999996 1410.01 3197.2999999999997 1410.4799999999998 3197.0099999999998L1430.5399999999997 3179.14C1431.0099999999998 3178.85 1431.6099999999997 3179.02 1431.8799999999997 3179.5299999999997C1432.1499999999996 3180.04 1431.9899999999996 3180.6899999999996 1431.5199999999998 3180.99L1411.4599999999998 3198.8599999999997C1410.9899999999998 3199.1499999999996 1410.3899999999999 3198.9799999999996 1410.12 3198.47Z " fill="#e6e6e6" fill-opacity="1" transform="matrix(1,0,0,1,-1409,-3160)"></path></svg>