<svg id="SvgjsSvg1024" xmlns="http://www.w3.org/2000/svg" version="1.1" xmlns:xlink="http://www.w3.org/1999/xlink" xmlns:svgjs="http://svgjs.com/svgjs" width="32" height="32" viewBox="0 0 32 32"><title>twitter</title><desc>Created with Avocode.</desc><defs id="SvgjsDefs1025"></defs><path id="SvgjsPath1026" d="M1340 5461C1348.84 5461 1356 5468.16 1356 5477C1356 5485.84 1348.84 5493 1340 5493C1331.16 5493 1324 5485.84 1324 5477C1324 5468.16 1331.16 5461 1340 5461ZM1347.78 5471.84C1348.54 5471.34 1349.12 5470.55 1349.3999999999999 5469.610000000001C1348.6899999999998 5470.070000000001 1347.8999999999999 5470.410000000001 1347.05 5470.59C1346.3799999999999 5469.8 1345.4199999999998 5469.31 1344.36 5469.31C1342.32 5469.31 1340.6699999999998 5471.120000000001 1340.6699999999998 5473.35C1340.6699999999998 5473.67 1340.6999999999998 5473.97 1340.7599999999998 5474.27C1337.6899999999998 5474.1 1334.9699999999998 5472.490000000001 1333.1499999999999 5470.05C1332.83 5470.650000000001 1332.6499999999999 5471.34 1332.6499999999999 5472.08C1332.6499999999999 5473.48 1333.3 5474.72 1334.29 5475.44C1333.69 5475.419999999999 1333.12 5475.24 1332.62 5474.94C1332.62 5474.95 1332.62 5474.969999999999 1332.62 5474.99C1332.62 5476.95 1333.8899999999999 5478.58 1335.58 5478.95C1335.27 5479.04 1334.9399999999998 5479.09 1334.61 5479.09C1334.37 5479.09 1334.1399999999999 5479.07 1333.9099999999999 5479.02C1334.3799999999999 5480.620000000001 1335.7499999999998 5481.790000000001 1337.36 5481.820000000001C1336.1 5482.910000000001 1334.51 5483.55 1332.78 5483.55C1332.48 5483.55 1332.18 5483.53 1331.8999999999999 5483.5C1333.53 5484.64 1335.4699999999998 5485.31 1337.56 5485.31C1344.35 5485.31 1348.06 5479.160000000001 1348.06 5473.820000000001C1348.06 5473.64 1348.06 5473.47 1348.05 5473.3C1348.78 5472.7300000000005 1349.3999999999999 5472.02 1349.8999999999999 5471.2C1349.2299999999998 5471.53 1348.5199999999998 5471.74 1347.78 5471.84Z " fill="#4e9edc" fill-opacity="1" transform="matrix(1,0,0,1,-1324,-5461)"></path><path id="SvgjsPath1027" d="M1340 5461C1348.84 5461 1356 5468.16 1356 5477C1356 5485.84 1348.84 5493 1340 5493C1331.16 5493 1324 5485.84 1324 5477C1324 5468.16 1331.16 5461 1340 5461ZM1347.78 5471.84C1348.54 5471.34 1349.12 5470.55 1349.3999999999999 5469.610000000001C1348.6899999999998 5470.070000000001 1347.8999999999999 5470.410000000001 1347.05 5470.59C1346.3799999999999 5469.8 1345.4199999999998 5469.31 1344.36 5469.31C1342.32 5469.31 1340.6699999999998 5471.120000000001 1340.6699999999998 5473.35C1340.6699999999998 5473.67 1340.6999999999998 5473.97 1340.7599999999998 5474.27C1337.6899999999998 5474.1 1334.9699999999998 5472.490000000001 1333.1499999999999 5470.05C1332.83 5470.650000000001 1332.6499999999999 5471.34 1332.6499999999999 5472.08C1332.6499999999999 5473.48 1333.3 5474.72 1334.29 5475.44C1333.69 5475.419999999999 1333.12 5475.24 1332.62 5474.94C1332.62 5474.95 1332.62 5474.969999999999 1332.62 5474.99C1332.62 5476.95 1333.8899999999999 5478.58 1335.58 5478.95C1335.27 5479.04 1334.9399999999998 5479.09 1334.61 5479.09C1334.37 5479.09 1334.1399999999999 5479.07 1333.9099999999999 5479.02C1334.3799999999999 5480.620000000001 1335.7499999999998 5481.790000000001 1337.36 5481.820000000001C1336.1 5482.910000000001 1334.51 5483.55 1332.78 5483.55C1332.48 5483.55 1332.18 5483.53 1331.8999999999999 5483.5C1333.53 5484.64 1335.4699999999998 5485.31 1337.56 5485.31C1344.35 5485.31 1348.06 5479.160000000001 1348.06 5473.820000000001C1348.06 5473.64 1348.06 5473.47 1348.05 5473.3C1348.78 5472.7300000000005 1349.3999999999999 5472.02 1349.8999999999999 5471.2C1349.2299999999998 5471.53 1348.5199999999998 5471.74 1347.78 5471.84Z " fill="#ebebeb" fill-opacity="1" transform="matrix(1,0,0,1,-1324,-5461)"></path></svg>